PathFileType	4	(X/Y/Z)	C:/Users/beibeiliu/ov580/test_trc/User3\sequence.11_training_dense_right.trc
DataRate	CameraRate	NumFrames	NumMarkers	Units	OrigDataRate	OrigDataStartFrame	OrigNumFrames
120	120	20	19	mm	120	110	137
Frame#	Time	ThumbCMC			ThumbMCP			ThumbIP			ThumbTip			IndexMCP			IndexPIP			IndexTip			MiddleMCP			MiddlePIP			MiddleTip			RingMCP			RingPIP			RingTip			PinkyMCP			PinkyPIP			PinkyTip			BackHand1			BackHand2			BackHand3	
		X0	Y0	Z0	X1	Y1	Z1	X2	Y2	Z2	X3	Y3	Z3	X4	Y4	Z4	X5	Y5	Z5	X6	Y6	Z6	X7	Y7	Z7	X8	Y8	Z8	X9	Y9	Z9	X10	Y10	Z10	X11	Y11	Z11	X12	Y12	Z12	X13	Y13	Z13	X14	Y14	Z14	X15	Y15	Z15	X16	Y16	Z16	X17	Y17	Z17	X18	Y18	Z18	
109	0.908333	147.24	-59.1474	-10.8021	140.41	-54.0872	-43.9965	135.938	-54.4555	-77.9741	123.881	-58.1157	-97.5686	144.41	-112.814	-63.4124	142.645	-114.921	-92.2718	136.312	-111.874	-122.244	119.28	-114.016	-73.2959	118.605	-98.1435	-99.7179	106.902	-65.6631	-109.481	101.196	-121.803	-60.0414	96.9727	-126.345	-83.67	92.781	-120.861	-112.305	83.7211	-116.812	-38.5937	72.7733	-131.109	-54.9514	65.4043	-141.951	-74.2505	104.938	-107.396	-5.77602	103.702	-97.569	20.8943	136.217	-95.052	3.51823	
110	0.916667	162.278	-61.9123	-7.17706	157.241	-57.6691	-41.5161	158.419	-58.0255	-71.2744	149.688	-66.1343	-95.969	167.277	-119.113	-51.2523	171.384	-122.391	-83.3502	172.644	-119.636	-108.996	152.661	-122.131	-59.7911	146.618	-108.503	-93.8461	136.714	-78.4065	-108.205	131.181	-129.608	-49.9492	135.143	-137.266	-79.8289	132.243	-134.416	-103.044	108.05	-126.884	-33.3729	106.083	-142.1	-50.068	97.3672	-157.713	-69.1109	123.207	-111.924	1.48066	118.881	-96.4469	26.5392	154.802	-98.616	11.6674	
111	0.925	169.07	-55.3069	-2.85053	167.59	-52.0866	-36.9043	171.692	-52.523	-66.6797	165.411	-62.7208	-90.2073	194.468	-110.782	-45.0763	201.241	-113.025	-75.1828	202.52	-109.037	-101.22	178.201	-118.233	-53.7884	178.832	-107.114	-84.6029	160.702	-76.6996	-104.881	159.767	-129.329	-45.8243	167.39	-134.264	-71.9676	166.989	-134.424	-101.167	136.457	-126.601	-30.58	138.207	-145.454	-47.33	137.385	-160.381	-64.7945	149.393	-111.522	3.36336	133.131	-98.9724	27.5934	170.05	-88.4273	20.2616	
112	0.933333	172.053	-41.1916	-2.40694	171.333	-42.3191	-38.0937	174.249	-40.9272	-66.8023	171.963	-51.8131	-91.6533	214.768	-84.9523	-42.1863	220.463	-88.3959	-73.026	220.63	-85.9667	-95.0357	203.083	-96.798	-54.7865	197.215	-91.3955	-82.2935	175.603	-65.9212	-102.681	190.73	-114.783	-43.6395	197.437	-120.198	-70.4992	196.591	-119.887	-99.7742	162.441	-123.351	-29.8084	170.326	-141.249	-46.2857	177.976	-152.252	-65.3968	167.987	-105.521	5.54934	150.604	-93.9251	28.0943	180.864	-73.6179	18.1221	
113	0.941667	165.749	-24.0444	-2.41711	164.149	-21.382	-38.6773	171.059	-24.1839	-71.0571	169.774	-33.033	-91.9853	222.654	-56.6845	-42.2202	231.045	-51.8036	-68.7655	230.836	-54.6533	-99.0572	211.845	-73.8107	-52.904	202.24	-65.2282	-86.2664	178.521	-52.0794	-101.17	209.189	-89.8531	-44.1538	216.833	-97.0281	-70.1106	218.484	-92.4622	-99.9396	188.327	-110.217	-31.4756	202.419	-120.042	-47.1981	209.336	-131.952	-63.3816	183.745	-87.4913	3.46531	160.804	-81.1331	27.653	183.898	-53.7162	18.6688	
114	0.95	155.498	-15.6757	-6.97799	152.83	-14.1506	-39.7586	157.086	-14.7449	-68.7538	162.945	-21.9167	-94.5909	218.369	-25.3682	-46.0005	224.839	-21.6044	-74.336	225.973	-22.2856	-100.279	214.213	-46.6326	-57.9216	202.399	-38.5254	-84.8601	171.269	-36.2373	-102.071	217.067	-62.9147	-46.6398	226.324	-65.8974	-74.6103	225.888	-65.7288	-98.1239	200.899	-90.9019	-32.0211	218.247	-97.6766	-49.5666	228.11	-105.352	-66.2874	188.585	-71.0125	4.91836	172.665	-69.1889	23.86	180.491	-36.0132	16.227	
115	0.958333	140.43	-10.1357	-6.24498	138.237	-6.20218	-42.7462	141.719	-4.63869	-72.1994	149.276	-14.2674	-94.9693	206.084	-6.12185	-48.4365	210.507	3.02597	-78.1682	209.754	7.25669	-105.775	206.128	-22.3098	-60.148	190.681	-23.2247	-92.4801	156.192	-26.3114	-105.407	212.062	-45.8209	-49.0456	221.906	-39.5208	-75.4755	222.687	-40.8471	-103.163	205.795	-68.4634	-37.2998	222.851	-71.3448	-54.4243	235.468	-74.8326	-71.187	188.208	-54.634	0.578776	170.566	-59.512	21.1336	177.437	-26.2578	12.8237	
116	0.966667	131.137	-10.4124	-9.54646	124.645	-5.36217	-45.0527	125.903	-1.08519	-75.9812	131.991	-7.4688	-95.4199	187.643	11.0865	-52.8469	188.671	22.3294	-83.2528	188.255	20.8808	-109.988	190.456	-3.85964	-65.3789	175.858	-10.2186	-95.4623	146.163	-23.1094	-107.887	203.414	-22.9848	-56.792	211.12	-19.6468	-80.4115	209.92	-17.71	-106.064	202.41	-48.6402	-41.3207	217.024	-50.864	-55.2817	231.428	-47.4538	-77.5483	185.824	-38.3091	-6.13254	168.194	-49.8924	20.9055	164.068	-14.399	12.0273	
117	0.975	114.905	-14.0693	-11.7912	104.618	-9.16471	-45.2516	110.143	-7.45921	-74.9299	114.061	-8.51762	-100.684	160.885	25.6864	-59.4655	159.357	32.6075	-85.5127	158.829	32.659	-112.386	168.798	7.048	-69.2972	156.005	3.37106	-95.4475	128.726	-20.9118	-110.694	187.493	-8.44477	-60.5896	190.592	-0.814121	-84.6234	188.974	4.33801	-113.956	195.41	-33.7209	-47.3126	207.024	-29.6417	-60.5205	220.517	-22.5278	-83.7494	174.432	-25.711	-10.2391	163.563	-45.4056	14.0322	150.497	-7.65916	3.4972	
118	0.983333	95.9842	-22.6696	-13.2566	90.9827	-20.7305	-50.6268	88.6463	-19.6255	-78.5897	97.0607	-19.8697	-102.904	131.521	25.0332	-61.1247	128.902	33.0878	-89.1371	126.053	33.5257	-116.873	143.934	9.55379	-72.036	132.3	1.38333	-101.366	115.163	-30.0252	-114.603	167.275	3.10281	-67.6978	168.658	10.4306	-93.3935	164.051	15.5787	-117.425	177.723	-22.7036	-49.7664	195.099	-12.8645	-69.2002	202.47	-4.22643	-84.9458	161.05	-19.448	-12.7586	155.552	-37.8	9.41053	133.282	-6.23819	-0.314997	
119	0.991667	84.4533	-35.7828	-18.9749	76.3922	-37.6999	-53.5697	77.1909	-37.3112	-81.4359	83.3716	-39.3772	-105.271	107.586	15.8596	-67.0992	106.966	21.091	-97.6945	103.279	20.0061	-122.921	123.113	2.96161	-82.3049	113.147	-12.2913	-108.281	104.647	-44.3655	-116.344	144.298	1.04102	-70.0436	147.556	8.17985	-99.1304	142.769	9.59705	-121.481	165.205	-21.6578	-53.377	176.506	-6.19591	-72.5621	185.948	3.1356	-89.6402	143.628	-19.4229	-18.0328	142.689	-32.0158	4.68267	112.663	-12.1824	-5.85543	
120	1	73.823	-48.2133	-19.4485	65.48	-52.9071	-56.4248	67.7258	-55.8561	-84.2086	72.9283	-59.2052	-106.391	94.2936	0.852449	-79.2261	88.2926	3.64508	-105.008	87.7429	-0.876232	-129.166	106.385	-12.2925	-88.8369	102.031	-29.5004	-111.893	92.8499	-66.3845	-117.054	131.177	-10.9685	-77.3676	133.148	-6.22782	-103.057	130.466	-8.25634	-129.56	153.532	-28.346	-58.9072	163.342	-16.4814	-74.8321	172.962	-4.73579	-95.6385	131.678	-22.5498	-26.3182	132.241	-36.9822	4.49881	102.537	-19.1586	-9.8102	
121	1.00833	65.5684	-59.632	-18.9805	56.8111	-71.519	-48.4986	57.8208	-73.8089	-82.7376	62.2794	-79.8351	-104.026	82.403	-17.9439	-80.2113	73.5472	-18.084	-111.375	72.7662	-25.1668	-136.369	100.081	-30.5949	-88.9517	89.4149	-50.1139	-113.598	83.8996	-90.9187	-110.921	122.381	-27.4044	-81.9532	120.624	-26.6108	-110.712	113.348	-30.6881	-136.545	142.854	-39.566	-63.9819	150.007	-29.4967	-80.2548	161.899	-20.9983	-100.948	123.546	-33.5876	-28.8113	126.918	-45.6988	-1.11905	96.0595	-31.4123	-15.0344	
122	1.01667	56.5758	-69.1297	-15.4407	46.6637	-84.1441	-44.7955	47.1701	-90.4024	-74.6425	55.2732	-95.6256	-97.7156	68.665	-33.1604	-82.8461	62.0675	-36.7802	-111.53	57.6421	-45.0255	-130.988	87.5113	-46.1055	-88.2542	80.25	-69.7298	-110.398	70.5065	-108.026	-103.142	111.065	-43.1049	-84.5234	107.582	-44.6121	-111.358	103.433	-54.5227	-137.489	130.075	-51.2941	-66.7735	138.775	-45.7654	-81.6751	152.198	-40.9246	-106.298	117.299	-43.6275	-30.3641	120.779	-54.4458	2.11127	83.7675	-39.6469	-10.1701	
123	1.025	50.3034	-74.9888	-7.88173	37.5797	-91.142	-40.317	37.0824	-100.622	-64.4759	37.8062	-112.339	-89.9544	61.2165	-45.0757	-80.1759	53.1135	-50.1626	-106.398	49.457	-64.8984	-132.588	79.9649	-61.5171	-87.8365	67.0591	-86.9885	-106.061	56.7786	-120.232	-95.4647	101.671	-57.2268	-84.7461	97.0398	-62.363	-109.566	92.7536	-75.3819	-132.149	125.187	-68.3294	-61.3885	134.71	-62.8534	-85.5304	142.968	-59.9071	-105.767	111.983	-55.3502	-28.3029	114.314	-59.8559	2.97253	79.469	-47.6821	-9.90362	
124	1.03333	47.943	-73.2535	-6.06212	31.71	-89.02	-30.8285	24.5666	-103.107	-58.4391	27.1264	-115.506	-79.082	59.4222	-54.5627	-81.5061	50.4328	-62.5282	-105.374	41.0956	-75.0226	-126.178	70.7153	-71.9083	-87.4029	59.9813	-95.2155	-101.383	42.8439	-128.628	-86.1477	97.9193	-75.3714	-81.0873	93.1825	-81.4648	-106.155	80.5325	-94.979	-128.645	120.004	-84.89	-61.2891	126.956	-84.674	-83.0797	131.211	-85.5898	-103.784	105.598	-66.8634	-27.8442	107.843	-66.9204	4.88629	77.5749	-50.1267	-10.2143	
125	1.04167	46.4223	-61.8904	-4.6321	24.0854	-78.0695	-30.288	14.0833	-92.4287	-51.9073	9.5468	-107.142	-73.1228	63.1495	-59.9644	-79.1289	50.954	-66.8849	-103.614	38.1116	-82.4158	-125.216	71.6723	-81.7881	-83.9103	43.3867	-100.049	-97.0614	23.5232	-124.716	-73.651	89.3157	-89.0748	-78.3984	83.0686	-101.971	-103.916	68.4294	-111.501	-120.207	104.56	-102.869	-54.8474	113.225	-107.02	-74.0036	117.455	-114.492	-96.9359	107.177	-78.7359	-26.4807	107.357	-77.2274	4.02869	82.7045	-52.0213	-13.6294	
126	1.05	50.9129	-49.3102	-9.71495	25.1629	-59.2226	-30.3851	7.6309	-71.5354	-53.0052	-0.691379	-86.87	-66.7634	66.0878	-61.9626	-82.1936	52.5273	-73.8566	-107.348	38.1217	-85.3436	-124.009	65.6053	-87.3845	-85.3619	35.5098	-98.0807	-93.5556	10.0355	-107.434	-68.6129	81.289	-103.333	-76.4348	69.6725	-110.662	-97.0168	50.7707	-123.463	-115.311	90.7299	-116.425	-49.2923	95.1671	-128.574	-68.9556	95.6279	-136.003	-91.2275	100.027	-85.2878	-25.9851	104.515	-83.8042	5.56251	90.9099	-52.8882	-18.5929	
127	1.05833	61.2399	-35.6453	-15.0632	33.7735	-42.7278	-36.1075	12.0513	-47.7133	-53.5616	-2.6958	-60.0004	-69.5133	69.4235	-66.7016	-84.2978	53.4699	-67.5726	-110.076	34.6474	-75.0456	-127.236	61.2711	-82.7234	-83.827	27.1907	-86.7137	-90.9464	0.247286	-79.7489	-64.8334	69.6658	-101.092	-73.3024	53.7825	-112.226	-96.1952	34.2821	-117.76	-109.649	75.3808	-120.595	-48.6736	72.0028	-132.592	-67.4473	69.5692	-145.21	-84.8573	92.1997	-91.9695	-24.8719	97.4396	-81.4176	8.00945	94.7684	-56.9208	-17.0713	
128	1.06667	77.1365	-23.568	-17.4748	49.4114	-22.7467	-36.8073	26.7506	-25.1111	-58.6069	6.96908	-30.4018	-76.4594	74.6566	-61.6402	-86.6692	59.5813	-63.7091	-106.647	40.2758	-63.5635	-125.165	60.9518	-77.3195	-80.5194	28.3357	-66.4931	-94.0869	3.24789	-48.725	-69.3116	61.5707	-95.8796	-73.0283	44.7208	-100.91	-94.101	22.7643	-98.8987	-111.065	58.0244	-113.653	-44.4056	54.3642	-122.264	-60.2262	46.381	-132.504	-78.3116	84.6155	-90.5995	-23.8867	94.3351	-84.7537	7.38453	100.599	-58.025	-17.6265	
